<?xml version="1.0" encoding="utf-8"?>
<!-- Generator: Adobe Illustrator 18.0.0, SVG Export Plug-In . SVG Version: 6.00 Build 0)  -->
<!DOCTYPE svg PUBLIC "-//W3C//DTD SVG 1.1//EN" "http://www.w3.org/Graphics/SVG/1.1/DTD/svg11.dtd">
<svg version="1.1" id="Layer_1" xmlns="http://www.w3.org/2000/svg" xmlns:xlink="http://www.w3.org/1999/xlink" x="0px" y="0px"
	 viewBox="0 0 100 100" enable-background="new 0 0 100 100" xml:space="preserve">
<g id="Layer_1_1_">
	<g>
		<path d="M57.4,63.9c-0.7,0-1.4,0.4-2.2,1.1v14.4c0.7,0.7,1.4,1.1,2.1,1.1c1.2,0,1.7-0.9,1.7-3.3V67.1C59,64.5,58.7,63.9,57.4,63.9
			z"/>
		<path d="M74.9,66.9c0-2.2-0.5-2.8-1.9-2.8s-1.9,0.6-1.9,2.8v2.6h3.8C74.9,69.4,74.9,66.9,74.9,66.9z"/>
		<path d="M100,5c0-2.8-2.2-5-5-5H5C2.1,0,0,2.2,0,5v90c0,2.8,2.2,5,5,5h90c2.9,0,5-2.2,5-5V5L100,5z M31.9,15.4L35.3,28l3.3-12.5h5
			l-6,19.1v13h-4.6v-13c0,0-4.8-16.1-5.7-19.1H31.9L31.9,15.4z M30,84.2h-4.9V57h-5v-4.6h15V57H30V84.2L30,84.2z M47.1,84.2h-4.6
			v-2.5c-1.6,2-3.1,3-4.6,3c-1.4,0-2.4-0.6-2.9-1.8c-0.3-0.7-0.5-1.8-0.5-3.5V60.4H39V78c0,1,0,1.4,0,1.7c0.3,0.6,0.4,0.9,1.1,0.9
			c1,0,1.8-0.7,2.6-2.1v-18h4.6L47.1,84.2L47.1,84.2z M44.1,45.5c-1-1.2-1.4-3-1.4-5.5v-8.5c0-2.6,0.5-4.5,1.4-5.7
			c1.2-1.6,2.9-2.3,5-2.3c1.9,0,3.7,0.6,4.9,2.3c1,1.2,1.3,3.1,1.3,5.7V40c0,2.5-0.3,4.3-1.2,5.5c-1.2,1.6-3.2,2.5-5,2.5
			C47.1,48,45.2,47.1,44.1,45.5z M63.7,77.1c0,2.2-0.1,3.7-0.4,4.7c-0.6,1.8-1.8,2.7-3.5,2.7c-1.5,0-3.2-1-4.4-2.7v2.3H51V52.2h4.3
			v10.4c1.4-1.7,3.1-2.6,4.4-2.6c1.7,0,2.9,1,3.4,2.8c0.3,1,0.5,2.5,0.5,4.7V77.1L63.7,77.1z M62.2,47.9c-1.4,0-2.4-0.6-2.9-1.8
			c-0.3-0.7-0.5-1.8-0.5-3.5V23.6h4.3v17.7c0,1,0,1.4,0,1.7c0.3,0.6,0.4,0.9,1.1,0.9c1,0,1.8-0.7,2.6-2.1V23.6h4.6v23.9h-4.6V45
			C65,46.9,63.7,47.9,62.2,47.9z M73.1,80.6c1.2,0,1.7-0.6,1.9-1.7c0-0.2,0.1-1.3,0.1-3h4.2v0.7c0,1.4,0,2.3-0.1,2.8
			c-0.1,1-0.4,1.8-1.1,2.6c-1.2,1.7-3,2.6-5.2,2.6c-2.2,0-4.1-0.8-5.3-2.4c-1-1.2-1.6-3-1.6-5.5v-8.3c0-2.5,0.6-4.5,1.6-5.7
			c1.2-1.6,3.1-2.5,5.2-2.5c2.2,0,3.9,0.8,5.1,2.5c1,1.2,1.4,3.1,1.4,5.6v4.9h-8.5v4.2C70.8,79.5,71.7,80.6,73.1,80.6z"/>
		<path d="M49.2,27.5c-1.4,0-2.2,1.1-1.9,3.5v9.5c-0.3,2.2,0.5,3.3,1.9,3.3s2.2-1.2,1.9-3.5v-9.5C51.3,28.5,50.5,27.5,49.2,27.5z"/>
	</g>
</g>
</svg>
